<?xml version="1.0" encoding="utf-8"?>
<svg xmlns="http://www.w3.org/2000/svg" xmlns:xlink="http://www.w3.org/1999/xlink" style="margin: auto; background: none; display: block; shape-rendering: auto;" width="300px" height="300px" viewBox="0 0 100 100" preserveAspectRatio="xMidYMid">
<g transform="rotate(0 50 50)">
  <rect x="42.5" y="22.5" rx="7.5" ry="7.5" width="15" height="15" fill="#e6261f">
    <animate attributeName="opacity" values="1;0" keyTimes="0;1" dur="4s" begin="-3.6666666666666665s" repeatCount="indefinite"></animate>
  </rect>
</g><g transform="rotate(30 50 50)">
  <rect x="42.5" y="22.5" rx="7.5" ry="7.5" width="15" height="15" fill="#eb7532">
    <animate attributeName="opacity" values="1;0" keyTimes="0;1" dur="4s" begin="-3.3333333333333335s" repeatCount="indefinite"></animate>
  </rect>
</g><g transform="rotate(60 50 50)">
  <rect x="42.5" y="22.5" rx="7.5" ry="7.5" width="15" height="15" fill="#f7d038">
    <animate attributeName="opacity" values="1;0" keyTimes="0;1" dur="4s" begin="-3s" repeatCount="indefinite"></animate>
  </rect>
</g><g transform="rotate(90 50 50)">
  <rect x="42.5" y="22.5" rx="7.5" ry="7.5" width="15" height="15" fill="#a3e048">
    <animate attributeName="opacity" values="1;0" keyTimes="0;1" dur="4s" begin="-2.6666666666666665s" repeatCount="indefinite"></animate>
  </rect>
</g><g transform="rotate(120 50 50)">
  <rect x="42.5" y="22.5" rx="7.5" ry="7.5" width="15" height="15" fill="#49da9a">
    <animate attributeName="opacity" values="1;0" keyTimes="0;1" dur="4s" begin="-2.3333333333333335s" repeatCount="indefinite"></animate>
  </rect>
</g><g transform="rotate(150 50 50)">
  <rect x="42.5" y="22.5" rx="7.5" ry="7.5" width="15" height="15" fill="#34bbe6">
    <animate attributeName="opacity" values="1;0" keyTimes="0;1" dur="4s" begin="-2s" repeatCount="indefinite"></animate>
  </rect>
</g><g transform="rotate(180 50 50)">
  <rect x="42.5" y="22.5" rx="7.5" ry="7.5" width="15" height="15" fill="#4355db">
    <animate attributeName="opacity" values="1;0" keyTimes="0;1" dur="4s" begin="-1.6666666666666667s" repeatCount="indefinite"></animate>
  </rect>
</g><g transform="rotate(210 50 50)">
  <rect x="42.5" y="22.5" rx="7.5" ry="7.5" width="15" height="15" fill="#d23be7">
    <animate attributeName="opacity" values="1;0" keyTimes="0;1" dur="4s" begin="-1.3333333333333333s" repeatCount="indefinite"></animate>
  </rect>
</g><g transform="rotate(240 50 50)">
  <rect x="42.5" y="22.5" rx="7.5" ry="7.5" width="15" height="15" fill="#e6261f">
    <animate attributeName="opacity" values="1;0" keyTimes="0;1" dur="4s" begin="-1s" repeatCount="indefinite"></animate>
  </rect>
</g><g transform="rotate(270 50 50)">
  <rect x="42.5" y="22.5" rx="7.5" ry="7.5" width="15" height="15" fill="#eb7532">
    <animate attributeName="opacity" values="1;0" keyTimes="0;1" dur="4s" begin="-0.6666666666666666s" repeatCount="indefinite"></animate>
  </rect>
</g><g transform="rotate(300 50 50)">
  <rect x="42.5" y="22.5" rx="7.5" ry="7.5" width="15" height="15" fill="#f7d038">
    <animate attributeName="opacity" values="1;0" keyTimes="0;1" dur="4s" begin="-0.3333333333333333s" repeatCount="indefinite"></animate>
  </rect>
</g><g transform="rotate(330 50 50)">
  <rect x="42.5" y="22.5" rx="7.5" ry="7.5" width="15" height="15" fill="#a3e048">
    <animate attributeName="opacity" values="1;0" keyTimes="0;1" dur="4s" begin="0s" repeatCount="indefinite"></animate>
  </rect>
</g>
<!-- [ldio] generated by https://loading.io/ --></svg>